<?xml version="1.0" standalone="no"?>
<svg xmlns="http://www.w3.org/2000/svg" xmlns:xlink="http://www.w3.org/1999/xlink" width="1448pt" height="712pt" viewBox="0.00 0.00 1448.04 711.80">
<g id="graph0" class="graph" transform="translate(4,707.7999877929688) scale(1)" data-name="G">

<polygon fill="white" stroke="none" points="-4,4 -4,-707.8 1444.04,-707.8 1444.04,4 -4,4" style=""/>
<!-- QI -->
<g id="node1" class="node" pointer-events="visible" data-name="QI">

<ellipse fill="none" stroke="black" cx="25.23" cy="-525" rx="21.42" ry="21.42" style=""/>
<ellipse fill="none" stroke="black" cx="25.23" cy="-525" rx="25.45" ry="25.45" style=""/>
<text text-anchor="middle" x="25.23" y="-520.8" font-family="Times,serif" font-size="14.00" style="">QI</text>
</g>
<!-- QI&#45;&gt;QI -->
<g id="edge2" class="edge" data-name="QI-&gt;QI">

<path fill="none" stroke="black" d="M16.54,-549.44C15.94,-559.61 18.84,-568.23 25.23,-568.23 29.02,-568.23 31.58,-565.19 32.91,-560.59" style=""/>
<polygon fill="black" stroke="black" points="36.37,-561.22 33.78,-550.95 29.4,-560.6 36.37,-561.22" style=""/>
<text text-anchor="middle" x="25.23" y="-572.43" font-family="Times,serif" font-size="14.00" style="">S,L</text>
</g>
<!-- Q50CTS -->
<g id="node3" class="node" pointer-events="visible" data-name="Q50CTS">

<ellipse fill="none" stroke="black" cx="673.86" cy="-402" rx="45.26" ry="45.26" style=""/>
<text text-anchor="middle" x="673.86" y="-397.8" font-family="Times,serif" font-size="14.00" style="">Q50CTS</text>
</g>
<!-- QI&#45;&gt;Q50CTS -->
<g id="edge1" class="edge" data-name="QI-&gt;Q50CTS">

<path fill="none" stroke="black" d="M51.05,-525C73.67,-525 107.99,-525 137.83,-525 137.83,-525 137.83,-525 541.1,-525 586.44,-525 622.66,-485.61 645.56,-451.41" style=""/>
<polygon fill="black" stroke="black" points="648.37,-453.51 650.84,-443.21 642.48,-449.72 648.37,-453.51" style=""/>
<text text-anchor="middle" x="339.46" y="-529.2" font-family="Times,serif" font-size="14.00" style="">5</text>
</g>
<!-- Q20CTS -->
<g id="node9" class="node" pointer-events="visible" data-name="Q20CTS">

<ellipse fill="none" stroke="black" cx="272.59" cy="-598" rx="45.26" ry="45.26" style=""/>
<text text-anchor="middle" x="272.59" y="-593.8" font-family="Times,serif" font-size="14.00" style="">Q20CTS</text>
</g>
<!-- QI&#45;&gt;Q20CTS -->
<g id="edge9" class="edge" data-name="QI-&gt;Q20CTS">

<path fill="none" stroke="black" d="M49.85,-533.01C55.9,-535.01 62.4,-537.12 68.45,-539 118.89,-554.68 176.76,-571.36 217.8,-582.97" style=""/>
<polygon fill="black" stroke="black" points="216.62,-586.27 227.19,-585.62 218.52,-579.54 216.62,-586.27" style=""/>
<text text-anchor="middle" x="138.83" y="-576.2" font-family="Times,serif" font-size="14.00" style="">2</text>
</g>
<!-- Q10CTS -->
<g id="node11" class="node" pointer-events="visible" data-name="Q10CTS">

<ellipse fill="none" stroke="black" cx="138.83" cy="-397" rx="45.26" ry="45.26" style=""/>
<text text-anchor="middle" x="138.83" y="-392.8" font-family="Times,serif" font-size="14.00" style="">Q10CTS</text>
</g>
<!-- QI&#45;&gt;Q10CTS -->
<g id="edge17" class="edge" data-name="QI-&gt;Q10CTS">

<path fill="none" stroke="black" d="M42.69,-506.11C57.96,-488.6 81.23,-461.92 100.93,-439.32" style=""/>
<polygon fill="black" stroke="black" points="103.35,-441.87 107.29,-432.03 98.08,-437.27 103.35,-441.87" style=""/>
<text text-anchor="middle" x="71.95" y="-480.2" font-family="Times,serif" font-size="14.00" style="">1</text>
</g>
<!-- QF -->
<g id="node2" class="node" pointer-events="visible" data-name="QF">

<ellipse fill="none" stroke="black" cx="1260.91" cy="-243" rx="23.28" ry="23.28" style=""/>
<ellipse fill="none" stroke="black" cx="1260.91" cy="-243" rx="27.26" ry="27.26" style=""/>
<text text-anchor="middle" x="1260.91" y="-238.8" font-family="Times,serif" font-size="14.00" style="">QF</text>
</g>
<!-- QS20 -->
<g id="node4" class="node" pointer-events="visible" data-name="QS20">

<ellipse fill="none" stroke="black" cx="813.99" cy="-191" rx="33.08" ry="33.08" style=""/>
<text text-anchor="middle" x="813.99" y="-186.8" font-family="Times,serif" font-size="14.00" style="">QS20</text>
</g>
<!-- Q50CTS&#45;&gt;QS20 -->
<g id="edge3" class="edge" data-name="Q50CTS-&gt;QS20">

<path fill="none" stroke="black" d="M704.55,-368.55C710.25,-360.63 715.57,-351.89 719.23,-343 741.59,-288.74 698.66,-256.42 737.23,-212.2 745.48,-202.74 757.57,-197.35 769.67,-194.31" style=""/>
<polygon fill="black" stroke="black" points="770.07,-197.8 779.2,-192.43 768.71,-190.93 770.07,-197.8" style=""/>
<text text-anchor="middle" x="741.51" y="-217.2" font-family="Times,serif" font-size="14.00" style="">S</text>
</g>
<!-- QL -->
<g id="node8" class="node" pointer-events="visible" data-name="QL">

<ellipse fill="none" stroke="black" cx="906.11" cy="-252" rx="23.82" ry="23.82" style=""/>
<text text-anchor="middle" x="906.11" y="-247.8" font-family="Times,serif" font-size="14.00" style="">QL</text>
</g>
<!-- Q50CTS&#45;&gt;QL -->
<g id="edge7" class="edge" data-name="Q50CTS-&gt;QL">

<path fill="none" stroke="black" d="M704.38,-368.07C710.02,-360.24 715.36,-351.66 719.23,-343 736.02,-305.44 705.46,-278.33 737.23,-252.2 756.88,-236.04 827.81,-241.83 870.93,-247.15" style=""/>
<polygon fill="black" stroke="black" points="870.43,-250.61 880.79,-248.42 871.32,-243.67 870.43,-250.61" style=""/>
<text text-anchor="middle" x="741.51" y="-257.2" font-family="Times,serif" font-size="14.00" style="">L</text>
</g>
<!-- Q60CTS -->
<g id="node12" class="node" pointer-events="visible" data-name="Q60CTS">

<ellipse fill="none" stroke="black" cx="1394.66" cy="-365" rx="45.26" ry="45.26" style=""/>
<text text-anchor="middle" x="1394.66" y="-360.8" font-family="Times,serif" font-size="14.00" style="">Q60CTS</text>
</g>
<!-- Q50CTS&#45;&gt;Q60CTS -->
<g id="edge33" class="edge" data-name="Q50CTS-&gt;Q60CTS">

<path fill="none" stroke="black" d="M684.67,-357.57C699.96,-292.48 731.13,-175.99 763.79,-149 867.89,-62.95 924.21,-78 1059.27,-78 1059.27,-78 1059.27,-78 1261.91,-78 1362.18,-78 1386.43,-224.49 1392.1,-308.16" style=""/>
<polygon fill="black" stroke="black" points="1388.6,-308.24 1392.69,-318.01 1395.58,-307.82 1388.6,-308.24" style=""/>
<text text-anchor="middle" x="1060.27" y="-82.2" font-family="Times,serif" font-size="14.00" style="">1</text>
</g>
<!-- Q70CTS -->
<g id="node13" class="node" pointer-events="visible" data-name="Q70CTS">

<ellipse fill="none" stroke="black" cx="1260.91" cy="-514" rx="45.26" ry="45.26" style=""/>
<text text-anchor="middle" x="1260.91" y="-509.8" font-family="Times,serif" font-size="14.00" style="">Q70CTS</text>
</g>
<!-- Q50CTS&#45;&gt;Q70CTS -->
<g id="edge34" class="edge" data-name="Q50CTS-&gt;Q70CTS">

<path fill="none" stroke="black" d="M703.49,-436.44C719.45,-453.26 740.73,-472.16 763.79,-483 910.54,-552 1109.16,-536.41 1204.43,-523.23" style=""/>
<polygon fill="black" stroke="black" points="1204.9,-526.7 1214.31,-521.82 1203.91,-519.77 1204.9,-526.7" style=""/>
<text text-anchor="middle" x="993.39" y="-538.2" font-family="Times,serif" font-size="14.00" style="">2</text>
</g>
<!-- Q100CTS -->
<g id="node16" class="node" pointer-events="visible" data-name="Q100CTS">

<ellipse fill="none" stroke="black" cx="813.99" cy="-424" rx="50.41" ry="50.41" style=""/>
<text text-anchor="middle" x="813.99" y="-419.8" font-family="Times,serif" font-size="14.00" style="">Q100CTS</text>
</g>
<!-- Q50CTS&#45;&gt;Q100CTS -->
<g id="edge35" class="edge" data-name="Q50CTS-&gt;Q100CTS">

<path fill="none" stroke="black" d="M718.59,-392.84C727.63,-392.16 737.06,-392.35 745.79,-394.2 749.83,-395.06 753.93,-396.17 758,-397.47" style=""/>
<polygon fill="black" stroke="black" points="756.65,-400.71 767.25,-400.77 759,-394.11 756.65,-400.71" style=""/>
<text text-anchor="middle" x="741.51" y="-398.2" font-family="Times,serif" font-size="14.00" style="">5</text>
</g>
<!-- QS10 -->
<g id="node5" class="node" pointer-events="visible" data-name="QS10">

<ellipse fill="none" stroke="black" cx="993.39" cy="-139" rx="33.08" ry="33.08" style=""/>
<text text-anchor="middle" x="993.39" y="-134.8" font-family="Times,serif" font-size="14.00" style="">QS10</text>
</g>
<!-- QS20&#45;&gt;QS10 -->
<g id="edge4" class="edge" data-name="QS20-&gt;QS10">

<path fill="none" stroke="black" d="M845.89,-181.94C874.84,-173.46 918.34,-160.71 950.42,-151.3" style=""/>
<polygon fill="black" stroke="black" points="951.19,-154.73 959.8,-148.55 949.22,-148.01 951.19,-154.73" style=""/>
<text text-anchor="middle" x="906.11" y="-176.2" font-family="Times,serif" font-size="14.00" style="">d</text>
</g>
<!-- QS -->
<g id="node7" class="node" pointer-events="visible" data-name="QS">

<ellipse fill="none" stroke="black" cx="1127.15" cy="-176" rx="23.26" ry="23.26" style=""/>
<text text-anchor="middle" x="1127.15" y="-171.8" font-family="Times,serif" font-size="14.00" style="">QS</text>
</g>
<!-- QS20&#45;&gt;QS -->
<g id="edge6" class="edge" data-name="QS20-&gt;QS">

<path fill="none" stroke="black" d="M847.46,-192.16C858.49,-192.5 870.88,-192.83 882.2,-193 903.45,-193.32 908.78,-193.92 930.02,-193 987.11,-190.53 1053.29,-184.03 1092.34,-179.83" style=""/>
<polygon fill="black" stroke="black" points="1092.48,-183.33 1102.04,-178.76 1091.72,-176.37 1092.48,-183.33" style=""/>
<text text-anchor="middle" x="993.39" y="-196.2" font-family="Times,serif" font-size="14.00" style="">v</text>
</g>
<!-- QS10&#45;&gt;QS -->
<g id="edge40" class="edge" data-name="QS10-&gt;QS">

<path fill="none" stroke="black" d="M1025.62,-147.77C1046.04,-153.5 1072.66,-160.98 1093.38,-166.8" style=""/>
<polygon fill="black" stroke="black" points="1092.18,-170.1 1102.75,-169.43 1094.07,-163.36 1092.18,-170.1" style=""/>
<text text-anchor="middle" x="1060.27" y="-162.2" font-family="Times,serif" font-size="14.00" style="">d</text>
</g>
<!-- Q30CTS -->
<g id="node6" class="node" pointer-events="visible" data-name="Q30CTS">

<ellipse fill="none" stroke="black" cx="406.34" cy="-347" rx="45.26" ry="45.26" style=""/>
<text text-anchor="middle" x="406.34" y="-342.8" font-family="Times,serif" font-size="14.00" style="">Q30CTS</text>
</g>
<!-- Q30CTS&#45;&gt;Q50CTS -->
<g id="edge5" class="edge" data-name="Q30CTS-&gt;Q50CTS">

<path fill="none" stroke="black" d="M451.51,-339.93C488.16,-335.67 541.24,-333.28 585.48,-346.2 600.77,-350.67 615.93,-358.72 629.23,-367.34" style=""/>
<polygon fill="black" stroke="black" points="627.06,-370.1 637.3,-372.82 631,-364.31 627.06,-370.1" style=""/>
<text text-anchor="middle" x="540.1" y="-350.2" font-family="Times,serif" font-size="14.00" style="">2</text>
</g>
<!-- Q30CTS&#45;&gt;Q30CTS -->
<g id="edge12" class="edge" data-name="Q30CTS-&gt;Q30CTS">

<path fill="none" stroke="black" d="M393.95,-390.84C394.77,-402 398.9,-410.38 406.34,-410.38 411,-410.38 414.35,-407.11 416.42,-401.93" style=""/>
<polygon fill="black" stroke="black" points="419.81,-402.82 418.42,-392.32 412.95,-401.39 419.81,-402.82" style=""/>
<text text-anchor="middle" x="406.34" y="-414.58" font-family="Times,serif" font-size="14.00" style="">L</text>
</g>
<!-- Q30CTS&#45;&gt;QS -->
<g id="edge41" class="edge" data-name="Q30CTS-&gt;QS">

<path fill="none" stroke="black" d="M406.99,-301.37C408.98,-215.85 426.72,-40 539.1,-40 539.1,-40 539.1,-40 994.39,-40 1052.06,-40 1092.56,-103.86 1112.35,-144.06" style=""/>
<polygon fill="black" stroke="black" points="1109.18,-145.54 1116.62,-153.08 1115.5,-142.55 1109.18,-145.54" style=""/>
<text text-anchor="middle" x="741.51" y="-44.2" font-family="Times,serif" font-size="14.00" style="">S</text>
</g>
<!-- Q40CTS -->
<g id="node10" class="node" pointer-events="visible" data-name="Q40CTS">

<ellipse fill="none" stroke="black" cx="540.1" cy="-417" rx="45.26" ry="45.26" style=""/>
<text text-anchor="middle" x="540.1" y="-412.8" font-family="Times,serif" font-size="14.00" style="">Q40CTS</text>
</g>
<!-- Q30CTS&#45;&gt;Q40CTS -->
<g id="edge13" class="edge" data-name="Q30CTS-&gt;Q40CTS">

<path fill="none" stroke="black" d="M446.87,-368C460.29,-375.13 475.46,-383.19 489.56,-390.68" style=""/>
<polygon fill="black" stroke="black" points="487.79,-393.7 498.26,-395.3 491.07,-387.52 487.79,-393.7" style=""/>
<text text-anchor="middle" x="473.22" y="-386.2" font-family="Times,serif" font-size="14.00" style="">1</text>
</g>
<!-- Q80CTS -->
<g id="node14" class="node" pointer-events="visible" data-name="Q80CTS">

<ellipse fill="none" stroke="black" cx="1127.15" cy="-402" rx="45.26" ry="45.26" style=""/>
<text text-anchor="middle" x="1127.15" y="-397.8" font-family="Times,serif" font-size="14.00" style="">Q80CTS</text>
</g>
<!-- Q30CTS&#45;&gt;Q80CTS -->
<g id="edge26" class="edge" data-name="Q30CTS-&gt;Q80CTS">

<path fill="none" stroke="black" d="M444.49,-321.78C469.97,-306.92 505.17,-291 539.1,-291 539.1,-291 539.1,-291 994.39,-291 1026.04,-291 1037.8,-288.92 1063.77,-307 1079.6,-318.02 1092.43,-334.47 1102.25,-350.59" style=""/>
<polygon fill="black" stroke="black" points="1099.2,-352.31 1107.22,-359.23 1105.26,-348.82 1099.2,-352.31" style=""/>
<text text-anchor="middle" x="741.51" y="-295.2" font-family="Times,serif" font-size="14.00" style="">5</text>
</g>
<!-- QS&#45;&gt;QF -->
<g id="edge42" class="edge" data-name="QS-&gt;QF">

<path fill="none" stroke="black" d="M1148.45,-186.32C1169.17,-196.86 1201.68,-213.39 1226.25,-225.89" style=""/>
<polygon fill="black" stroke="black" points="1224.39,-228.87 1234.89,-230.28 1227.57,-222.63 1224.39,-228.87" style=""/>
<text text-anchor="middle" x="1194.03" y="-214.2" font-family="Times,serif" font-size="14.00" style="">s</text>
</g>
<!-- QL&#45;&gt;QF -->
<g id="edge8" class="edge" data-name="QL-&gt;QF">

<path fill="none" stroke="black" d="M930.26,-251.41C989.79,-249.89 1148.69,-245.84 1221.95,-243.97" style=""/>
<polygon fill="black" stroke="black" points="1221.93,-247.47 1231.84,-243.72 1221.75,-240.47 1221.93,-247.47" style=""/>
<text text-anchor="middle" x="1060.27" y="-253.2" font-family="Times,serif" font-size="14.00" style="">l</text>
</g>
<!-- Q20CTS&#45;&gt;Q30CTS -->
<g id="edge11" class="edge" data-name="Q20CTS-&gt;Q30CTS">

<path fill="none" stroke="black" d="M311.93,-574.64C323.24,-566.18 334.77,-555.78 342.96,-544 372.44,-501.65 388.48,-444.71 396.88,-402.94" style=""/>
<polygon fill="black" stroke="black" points="400.28,-403.82 398.72,-393.34 393.4,-402.51 400.28,-403.82" style=""/>
<text text-anchor="middle" x="339.46" y="-555.2" font-family="Times,serif" font-size="14.00" style="">1</text>
</g>
<!-- Q20CTS&#45;&gt;Q20CTS -->
<g id="edge10" class="edge" data-name="Q20CTS-&gt;Q20CTS">

<path fill="none" stroke="black" d="M260.2,-641.84C261.01,-653 265.14,-661.38 272.59,-661.38 277.24,-661.38 280.6,-658.11 282.66,-652.93" style=""/>
<polygon fill="black" stroke="black" points="286.05,-653.82 284.67,-643.32 279.2,-652.39 286.05,-653.82" style=""/>
<text text-anchor="middle" x="272.59" y="-665.58" font-family="Times,serif" font-size="14.00" style="">S,L</text>
</g>
<!-- Q20CTS&#45;&gt;Q40CTS -->
<g id="edge16" class="edge" data-name="Q20CTS-&gt;Q40CTS">

<path fill="none" stroke="black" d="M315.99,-584.5C325.13,-580.93 334.56,-576.74 342.96,-572 401.3,-539.09 460.58,-489.53 498.47,-455.35" style=""/>
<polygon fill="black" stroke="black" points="500.52,-458.21 505.57,-448.89 495.81,-453.03 500.52,-458.21" style=""/>
<text text-anchor="middle" x="406.34" y="-564.2" font-family="Times,serif" font-size="14.00" style="">2</text>
</g>
<!-- Q20CTS&#45;&gt;Q70CTS -->
<g id="edge23" class="edge" data-name="Q20CTS-&gt;Q70CTS">

<path fill="none" stroke="black" d="M302.59,-632.41C327.09,-657.45 364.63,-687 405.34,-687 405.34,-687 405.34,-687 1128.15,-687 1188.77,-687 1225.18,-618.93 1243.91,-568.19" style=""/>
<polygon fill="black" stroke="black" points="1247.09,-569.68 1247.13,-559.08 1240.49,-567.34 1247.09,-569.68" style=""/>
<text text-anchor="middle" x="741.51" y="-691.2" font-family="Times,serif" font-size="14.00" style="">5</text>
</g>
<!-- Q40CTS&#45;&gt;Q50CTS -->
<g id="edge15" class="edge" data-name="Q40CTS-&gt;Q50CTS">

<path fill="none" stroke="black" d="M585.34,-411.96C595.55,-410.8 606.54,-409.55 617.17,-408.34" style=""/>
<polygon fill="black" stroke="black" points="617.46,-411.83 627,-407.22 616.67,-404.87 617.46,-411.83" style=""/>
<text text-anchor="middle" x="606.98" y="-413.2" font-family="Times,serif" font-size="14.00" style="">1</text>
</g>
<!-- Q40CTS&#45;&gt;QS10 -->
<g id="edge39" class="edge" data-name="Q40CTS-&gt;QS10">

<path fill="none" stroke="black" d="M571.95,-384.19C576.68,-378.61 581.36,-372.76 585.48,-367 665.05,-255.72 619.03,-168.08 737.23,-99.2 805.55,-59.39 900.83,-93.32 953.5,-118.28" style=""/>
<polygon fill="black" stroke="black" points="951.88,-121.38 962.4,-122.62 954.95,-115.09 951.88,-121.38" style=""/>
<text text-anchor="middle" x="741.51" y="-104.2" font-family="Times,serif" font-size="14.00" style="">S</text>
</g>
<!-- Q40CTS&#45;&gt;Q40CTS -->
<g id="edge14" class="edge" data-name="Q40CTS-&gt;Q40CTS">

<path fill="none" stroke="black" d="M527.71,-460.84C528.52,-472 532.65,-480.38 540.1,-480.38 544.75,-480.38 548.11,-477.11 550.17,-471.93" style=""/>
<polygon fill="black" stroke="black" points="553.56,-472.82 552.18,-462.32 546.71,-471.39 553.56,-472.82" style=""/>
<text text-anchor="middle" x="540.1" y="-484.58" font-family="Times,serif" font-size="14.00" style="">L</text>
</g>
<!-- Q40CTS&#45;&gt;Q60CTS -->
<g id="edge29" class="edge" data-name="Q40CTS-&gt;Q60CTS">

<path fill="none" stroke="black" d="M547.02,-461.99C558.46,-527.65 590.24,-642 672.86,-642 672.86,-642 672.86,-642 1261.91,-642 1358.67,-642 1384.45,-502.45 1391.26,-421.45" style=""/>
<polygon fill="black" stroke="black" points="1394.72,-422.18 1391.99,-411.94 1387.74,-421.64 1394.72,-422.18" style=""/>
<text text-anchor="middle" x="993.39" y="-646.2" font-family="Times,serif" font-size="14.00" style="">2</text>
</g>
<!-- Q90CTS -->
<g id="node15" class="node" pointer-events="visible" data-name="Q90CTS">

<ellipse fill="none" stroke="black" cx="993.39" cy="-455" rx="45.26" ry="45.26" style=""/>
<text text-anchor="middle" x="993.39" y="-450.8" font-family="Times,serif" font-size="14.00" style="">Q90CTS</text>
</g>
<!-- Q40CTS&#45;&gt;Q90CTS -->
<g id="edge30" class="edge" data-name="Q40CTS-&gt;Q90CTS">

<path fill="none" stroke="black" d="M569.28,-451.87C603.93,-491.68 666.86,-554.57 737.23,-580 817.05,-608.84 904.83,-542.46 953.82,-495.82" style=""/>
<polygon fill="black" stroke="black" points="956.11,-498.48 960.84,-489 951.23,-493.46 956.11,-498.48" style=""/>
<text text-anchor="middle" x="741.51" y="-586.2" font-family="Times,serif" font-size="14.00" style="">5</text>
</g>
<!-- Q10CTS&#45;&gt;Q30CTS -->
<g id="edge20" class="edge" data-name="Q10CTS-&gt;Q30CTS">

<path fill="none" stroke="black" d="M183.67,-388.74C229.31,-380.15 300.9,-366.67 350.31,-357.36" style=""/>
<polygon fill="black" stroke="black" points="350.77,-360.84 359.95,-355.55 349.47,-353.96 350.77,-360.84" style=""/>
<text text-anchor="middle" x="272.59" y="-384.2" font-family="Times,serif" font-size="14.00" style="">2</text>
</g>
<!-- Q10CTS&#45;&gt;Q20CTS -->
<g id="edge19" class="edge" data-name="Q10CTS-&gt;Q20CTS">

<path fill="none" stroke="black" d="M164.3,-434.34C185.96,-467.37 217.65,-515.72 240.98,-551.31" style=""/>
<polygon fill="black" stroke="black" points="237.78,-552.81 246.19,-559.26 243.64,-548.98 237.78,-552.81" style=""/>
<text text-anchor="middle" x="205.71" y="-501.2" font-family="Times,serif" font-size="14.00" style="">1</text>
</g>
<!-- Q10CTS&#45;&gt;Q10CTS -->
<g id="edge18" class="edge" data-name="Q10CTS-&gt;Q10CTS">

<path fill="none" stroke="black" d="M126.44,-440.84C127.26,-452 131.39,-460.38 138.83,-460.38 143.48,-460.38 146.84,-457.11 148.91,-451.93" style=""/>
<polygon fill="black" stroke="black" points="152.29,-452.82 150.91,-442.32 145.44,-451.39 152.29,-452.82" style=""/>
<text text-anchor="middle" x="138.83" y="-464.58" font-family="Times,serif" font-size="14.00" style="">S,L</text>
</g>
<!-- Q10CTS&#45;&gt;Q60CTS -->
<g id="edge21" class="edge" data-name="Q10CTS-&gt;Q60CTS">

<path fill="none" stroke="black" d="M145.1,-351.85C158.51,-247.79 198.15,0 271.59,0 271.59,0 271.59,0 1261.91,0 1326.76,0 1368.59,-206.45 1385.34,-308.82" style=""/>
<polygon fill="black" stroke="black" points="1381.84,-309.07 1386.88,-318.38 1388.75,-307.95 1381.84,-309.07" style=""/>
<text text-anchor="middle" x="741.51" y="-4.2" font-family="Times,serif" font-size="14.00" style="">5</text>
</g>
<!-- Q60CTS&#45;&gt;Q50CTS -->
<g id="edge22" class="edge" data-name="Q60CTS-&gt;Q50CTS">

<path fill="none" stroke="black" d="M1352.61,-347.74C1327,-338.5 1293.09,-329 1261.91,-329 812.99,-329 812.99,-329 812.99,-329 778.2,-329 743.6,-347.32 717.73,-365.61" style=""/>
<polygon fill="black" stroke="black" points="715.82,-362.67 709.83,-371.41 719.96,-368.31 715.82,-362.67" style=""/>
<text text-anchor="middle" x="1060.27" y="-333.2" font-family="Times,serif" font-size="14.00" style="">d</text>
</g>
<!-- Q70CTS&#45;&gt;Q50CTS -->
<g id="edge24" class="edge" data-name="Q70CTS-&gt;Q50CTS">

<path fill="none" stroke="black" d="M1222.95,-539.15C1214.89,-543.53 1206.17,-547.48 1197.53,-550 1099.32,-578.64 821.01,-600.72 737.23,-542 733.18,-539.16 712.79,-492.38 696.41,-453.66" style=""/>
<polygon fill="black" stroke="black" points="699.83,-452.76 692.71,-444.91 693.38,-455.48 699.83,-452.76" style=""/>
<text text-anchor="middle" x="993.39" y="-582.2" font-family="Times,serif" font-size="14.00" style="">v</text>
</g>
<!-- Q70CTS&#45;&gt;Q60CTS -->
<g id="edge25" class="edge" data-name="Q70CTS-&gt;Q60CTS">

<path fill="none" stroke="black" d="M1291.48,-480.56C1310.73,-458.78 1336.01,-430.2 1356.61,-406.9" style=""/>
<polygon fill="black" stroke="black" points="1358.96,-409.53 1362.96,-399.72 1353.72,-404.89 1358.96,-409.53" style=""/>
<text text-anchor="middle" x="1327.79" y="-443.2" font-family="Times,serif" font-size="14.00" style="">d</text>
</g>
<!-- Q80CTS&#45;&gt;Q60CTS -->
<g id="edge27" class="edge" data-name="Q80CTS-&gt;Q60CTS">

<path fill="none" stroke="black" d="M1172.29,-395.85C1217.85,-389.5 1289.02,-379.58 1338.32,-372.71" style=""/>
<polygon fill="black" stroke="black" points="1338.5,-376.22 1347.92,-371.37 1337.53,-369.29 1338.5,-376.22" style=""/>
<text text-anchor="middle" x="1260.91" y="-393.2" font-family="Times,serif" font-size="14.00" style="">v</text>
</g>
<!-- Q80CTS&#45;&gt;Q70CTS -->
<g id="edge28" class="edge" data-name="Q80CTS-&gt;Q70CTS">

<path fill="none" stroke="black" d="M1163.91,-429.01C1174.85,-437.52 1186.82,-447.08 1197.53,-456.2 1204.72,-462.32 1212.21,-468.99 1219.41,-475.56" style=""/>
<polygon fill="black" stroke="black" points="1216.84,-477.95 1226.56,-482.15 1221.58,-472.8 1216.84,-477.95" style=""/>
<text text-anchor="middle" x="1194.03" y="-460.2" font-family="Times,serif" font-size="14.00" style="">d</text>
</g>
<!-- Q90CTS&#45;&gt;Q70CTS -->
<g id="edge31" class="edge" data-name="Q90CTS-&gt;Q70CTS">

<path fill="none" stroke="black" d="M1037.94,-464.68C1083.66,-474.84 1155.67,-490.84 1205.19,-501.84" style=""/>
<polygon fill="black" stroke="black" points="1204.34,-505.24 1214.86,-503.99 1205.86,-498.4 1204.34,-505.24" style=""/>
<text text-anchor="middle" x="1127.15" y="-498.2" font-family="Times,serif" font-size="14.00" style="">v</text>
</g>
<!-- Q90CTS&#45;&gt;Q80CTS -->
<g id="edge32" class="edge" data-name="Q90CTS-&gt;Q80CTS">

<path fill="none" stroke="black" d="M1035.72,-438.38C1047.99,-433.44 1061.57,-427.98 1074.41,-422.81" style=""/>
<polygon fill="black" stroke="black" points="1075.6,-426.11 1083.57,-419.13 1072.98,-419.61 1075.6,-426.11" style=""/>
<text text-anchor="middle" x="1060.27" y="-432.2" font-family="Times,serif" font-size="14.00" style="">d</text>
</g>
<!-- Q100CTS&#45;&gt;Q50CTS -->
<g id="edge38" class="edge" data-name="Q100CTS-&gt;Q50CTS">

<path fill="none" stroke="black" d="M764.05,-416.21C753.03,-414.45 741.25,-412.57 729.99,-410.78" style=""/>
<polygon fill="black" stroke="black" points="730.86,-407.38 720.44,-409.26 729.76,-414.29 730.86,-407.38" style=""/>
<text text-anchor="middle" x="741.51" y="-417.2" font-family="Times,serif" font-size="14.00" style="">c</text>
</g>
<!-- Q100CTS&#45;&gt;Q80CTS -->
<g id="edge36" class="edge" data-name="Q100CTS-&gt;Q80CTS">

<path fill="none" stroke="black" d="M861.64,-406.41C886.82,-397.85 918.68,-388.49 948.02,-384.2 987.93,-378.36 998.64,-380.15 1038.77,-384.2 1049.52,-385.28 1060.9,-387.1 1071.77,-389.17" style=""/>
<polygon fill="black" stroke="black" points="1070.88,-392.56 1081.37,-391.09 1072.26,-385.69 1070.88,-392.56" style=""/>
<text text-anchor="middle" x="993.39" y="-388.2" font-family="Times,serif" font-size="14.00" style="">v</text>
</g>
<!-- Q100CTS&#45;&gt;Q90CTS -->
<g id="edge37" class="edge" data-name="Q100CTS-&gt;Q90CTS">

<path fill="none" stroke="black" d="M863.94,-432.55C886.68,-436.53 913.81,-441.27 937.27,-445.37" style=""/>
<polygon fill="black" stroke="black" points="936.51,-448.79 946.96,-447.06 937.72,-441.89 936.51,-448.79" style=""/>
<text text-anchor="middle" x="906.11" y="-448.2" font-family="Times,serif" font-size="14.00" style="">d</text>
</g>
</g>
</svg>