<?xml version="1.0" standalone="no"?>
<svg xmlns="http://www.w3.org/2000/svg" xmlns:xlink="http://www.w3.org/1999/xlink" width="526pt" height="212pt" viewBox="0.00 0.00 525.61 212.02">
<g id="graph0" class="graph" transform="translate(4,208.02000427246094) scale(1)" data-name="G">

<polygon fill="white" stroke="none" points="-4,4 -4,-208.02 521.61,-208.02 521.61,4 -4,4" style=""/>
<!-- q1 -->
<g id="node1" class="node" pointer-events="visible" data-name="q1">

<ellipse fill="none" stroke="black" cx="258.81" cy="-74.93" rx="20.86" ry="20.86" style=""/>
<ellipse fill="none" stroke="black" cx="258.81" cy="-74.93" rx="24.89" ry="24.89" style=""/>
<text text-anchor="middle" x="258.81" y="-70.73" font-family="Times,serif" font-size="14.00" style="">q1</text>
</g>
<!-- q1&#45;&gt;q1 -->
<g id="edge9" class="edge" data-name="q1-&gt;q1">

<path fill="none" stroke="black" d="M251.58,-99.07C251.08,-109.11 253.49,-117.62 258.81,-117.62 261.88,-117.62 263.98,-114.78 265.11,-110.44" style=""/>
<polygon fill="black" stroke="black" points="268.59,-110.83 265.91,-100.58 261.62,-110.26 268.59,-110.83" style=""/>
<text text-anchor="middle" x="258.81" y="-121.82" font-family="Times,serif" font-size="14.00" style="">)| P -&gt; E</text>
</g>
<!-- q1&#45;&gt;q1 -->
<g id="edge10" class="edge" data-name="q1-&gt;q1">

<path fill="none" stroke="black" d="M246.54,-97.02C241.12,-115.84 245.21,-135.62 258.81,-135.62 269.75,-135.62 274.53,-122.81 273.16,-108.01" style=""/>
<polygon fill="black" stroke="black" points="276.66,-107.68 271.36,-98.51 269.79,-108.99 276.66,-107.68" style=""/>
<text text-anchor="middle" x="258.81" y="-139.82" font-family="Times,serif" font-size="14.00" style="">0,1,2,3,4,5,6,7,8,9 | Z -&gt; Z</text>
</g>
<!-- q1&#45;&gt;q1 -->
<g id="edge11" class="edge" data-name="q1-&gt;q1">

<path fill="none" stroke="black" d="M243.85,-95.09C231.03,-121.6 236.02,-153.62 258.81,-153.62 278.66,-153.62 285,-129.33 277.83,-105.53" style=""/>
<polygon fill="black" stroke="black" points="281.2,-104.54 274.31,-96.5 274.68,-107.08 281.2,-104.54" style=""/>
<text text-anchor="middle" x="258.81" y="-157.82" font-family="Times,serif" font-size="14.00" style="">0,1,2,3,4,5,6,7,8,9 | P -&gt; P</text>
</g>
<!-- q2 -->
<g id="node3" class="node" pointer-events="visible" data-name="q2">

<ellipse fill="none" stroke="black" cx="488.16" cy="-74.93" rx="20.89" ry="20.89" style=""/>
<text text-anchor="middle" x="488.16" y="-70.73" font-family="Times,serif" font-size="14.00" style="">q2</text>
</g>
<!-- q1&#45;&gt;q2 -->
<g id="edge5" class="edge" data-name="q1-&gt;q2">

<path fill="none" stroke="black" d="M275.22,-94.11C282.34,-101.47 291.45,-109.04 301.5,-112.93 362.82,-136.68 388.76,-138.22 449.46,-112.93 456.33,-110.07 462.59,-105.28 467.95,-100.05" style=""/>
<polygon fill="black" stroke="black" points="470.41,-102.54 474.57,-92.8 465.24,-97.83 470.41,-102.54" style=""/>
<text text-anchor="middle" x="375.48" y="-135.13" font-family="Times,serif" font-size="14.00" style="">+,-,*,/ | Z -&gt; Z</text>
</g>
<!-- q1&#45;&gt;q2 -->
<g id="edge6" class="edge" data-name="q1-&gt;q2">

<path fill="none" stroke="black" d="M284.14,-74.93C325.57,-74.93 409.77,-74.93 455.65,-74.93" style=""/>
<polygon fill="black" stroke="black" points="455.46,-78.43 465.46,-74.93 455.46,-71.43 455.46,-78.43" style=""/>
<text text-anchor="middle" x="375.48" y="-79.13" font-family="Times,serif" font-size="14.00" style="">+,-,*,/ | P -&gt; P</text>
</g>
<!-- q0 -->
<g id="node2" class="node" pointer-events="visible" data-name="q0">

<ellipse fill="none" stroke="black" cx="29.46" cy="-74.93" rx="20.89" ry="20.89" style=""/>
<text text-anchor="middle" x="29.46" y="-70.73" font-family="Times,serif" font-size="14.00" style="">q0</text>
</g>
<!-- q0&#45;&gt;q1 -->
<g id="edge3" class="edge" data-name="q0-&gt;q1">

<path fill="none" stroke="black" d="M50.63,-74.93C89.2,-74.93 173.85,-74.93 222.16,-74.93" style=""/>
<polygon fill="black" stroke="black" points="222.1,-78.43 232.1,-74.93 222.1,-71.43 222.1,-78.43" style=""/>
<text text-anchor="middle" x="142.13" y="-79.13" font-family="Times,serif" font-size="14.00" style="">0,1,2,3,4,5,6,7,8,9 | Z -&gt; Z</text>
</g>
<!-- q0&#45;&gt;q1 -->
<g id="edge4" class="edge" data-name="q0-&gt;q1">

<path fill="none" stroke="black" d="M47.33,-63.25C53.58,-59.58 60.91,-55.99 68.15,-54.13 131.83,-37.72 152.1,-39.05 216.11,-54.13 219.55,-54.94 223.02,-56.07 226.42,-57.4" style=""/>
<polygon fill="black" stroke="black" points="224.96,-60.58 235.51,-61.52 227.84,-54.21 224.96,-60.58" style=""/>
<text text-anchor="middle" x="142.13" y="-58.13" font-family="Times,serif" font-size="14.00" style="">0,1,2,3,4,5,6,7,8,9 | P -&gt; P</text>
</g>
<!-- q0&#45;&gt;q0 -->
<g id="edge1" class="edge" data-name="q0-&gt;q0">

<path fill="none" stroke="black" d="M19.4,-93.64C17.52,-104.04 20.87,-113.62 29.46,-113.62 34.69,-113.62 37.97,-110.07 39.32,-104.93" style=""/>
<polygon fill="black" stroke="black" points="42.82,-105.21 39.49,-95.16 35.82,-105.09 42.82,-105.21" style=""/>
<text text-anchor="middle" x="29.46" y="-117.82" font-family="Times,serif" font-size="14.00" style="">( | Z -&gt; PZ</text>
</g>
<!-- q0&#45;&gt;q0 -->
<g id="edge2" class="edge" data-name="q0-&gt;q0">

<path fill="none" stroke="black" d="M14.65,-90.02C2.73,-109.01 7.67,-131.62 29.46,-131.62 47.33,-131.62 53.86,-116.41 49.05,-100.46" style=""/>
<polygon fill="black" stroke="black" points="52.25,-99.03 44.9,-91.4 45.89,-101.95 52.25,-99.03" style=""/>
<text text-anchor="middle" x="29.46" y="-135.82" font-family="Times,serif" font-size="14.00" style="">( | P -&gt; PP</text>
</g>
<!-- q2&#45;&gt;q1 -->
<g id="edge7" class="edge" data-name="q2-&gt;q1">

<path fill="none" stroke="black" d="M470.29,-63.25C464.04,-59.58 456.7,-55.99 449.46,-54.13 385.78,-37.72 365.51,-39.05 301.5,-54.13 298.07,-54.94 294.6,-56.07 291.2,-57.4" style=""/>
<polygon fill="black" stroke="black" points="289.77,-54.21 282.1,-61.52 292.66,-60.58 289.77,-54.21" style=""/>
<text text-anchor="middle" x="375.48" y="-58.13" font-family="Times,serif" font-size="14.00" style="">0,1,2,3,4,5,6,7,8,9 | Z -&gt; Z</text>
</g>
<!-- q2&#45;&gt;q1 -->
<g id="edge8" class="edge" data-name="q2-&gt;q1">

<path fill="none" stroke="black" d="M479.05,-55.62C472.87,-43.6 463.08,-29.14 449.46,-22.13 390.99,7.97 360.68,6.55 301.5,-22.13 291.77,-26.84 283.63,-35.05 277.2,-43.6" style=""/>
<polygon fill="black" stroke="black" points="274.47,-41.39 271.75,-51.62 280.26,-45.32 274.47,-41.39" style=""/>
<text text-anchor="middle" x="375.48" y="-27.13" font-family="Times,serif" font-size="14.00" style="">0,1,2,3,4,5,6,7,8,9 | P -&gt; P</text>
</g>
<!-- q2&#45;&gt;q2 -->
<g id="edge12" class="edge" data-name="q2-&gt;q2">

<path fill="none" stroke="black" d="M478.1,-93.64C476.22,-104.04 479.57,-113.62 488.16,-113.62 493.39,-113.62 496.68,-110.07 498.02,-104.93" style=""/>
<polygon fill="black" stroke="black" points="501.52,-105.21 498.19,-95.16 494.52,-105.09 501.52,-105.21" style=""/>
<text text-anchor="middle" x="488.16" y="-117.82" font-family="Times,serif" font-size="14.00" style="">( | Z -&gt; PZ</text>
</g>
<!-- q2&#45;&gt;q2 -->
<g id="edge13" class="edge" data-name="q2-&gt;q2">

<path fill="none" stroke="black" d="M473.35,-90.02C461.43,-109.01 466.37,-131.62 488.16,-131.62 506.03,-131.62 512.56,-116.41 507.76,-100.46" style=""/>
<polygon fill="black" stroke="black" points="510.95,-99.03 503.6,-91.4 504.59,-101.95 510.95,-99.03" style=""/>
<text text-anchor="middle" x="488.16" y="-135.82" font-family="Times,serif" font-size="14.00" style="">( | P -&gt; PP</text>
</g>
</g>
</svg>